{
  "accessors": [
    {
      "bufferView": 2,
      "componentType": 5126,
      "count": 65532,
      "max": [
        0.24455265700817108,
        0.26092106103897095,
        0.00301246321760118
      ],
      "min": [
        -0.11292781680822372,
        -0.17511571943759918,
        -0.9109950065612793
      ],
      "type": "VEC3"
    },
    {
      "bufferView": 2,
      "byteOffset": 786384,
      "componentType": 5126,
      "count": 65532,
      "max": [
        0.9999282360076904,
        0.999973475933075,
        0.9988512396812439
      ],
      "min": [
        -0.9999918937683105,
        -0.9999750256538391,
        -0.9997889399528503
      ],
      "type": "VEC3"
    },
    {
      "bufferView": 1,
      "componentType": 5126,
      "count": 65532,
      "max": [
        0.9960029721260071,
        0.9960939884185791
      ],
      "min": [
        0.0036700000055134296,
        0.0009949803352355957
      ],
      "type": "VEC2"
    },
    {
      "bufferView": 0,
      "componentType": 5125,
      "count": 74223,
      "type": "SCALAR"
    },
    {
      "bufferView": 2,
      "byteOffset": 1572768,
      "componentType": 5126,
      "count": 5778,
      "max": [
        0.1457773745059967,
        0.20526988804340363,
        -0.03106786124408245
      ],
      "min": [
        -0.0026315904688090086,
        -0.1757095903158188,
        -0.9109950065612793
      ],
      "type": "VEC3"
    },
    {
      "bufferView": 2,
      "byteOffset": 1642104,
      "componentType": 5126,
      "count": 5778,
      "max": [
        0.9996241331100464,
        0.9979901909828186,
        0.9998453259468079
      ],
      "min": [
        -0.9998504519462585,
        -0.9999663233757019,
        -0.9938721060752869
      ],
      "type": "VEC3"
    },
    {
      "bufferView": 1,
      "byteOffset": 524256,
      "componentType": 5126,
      "count": 5778,
      "max": [
        0.9877480268478394,
        0.9956910610198975
      ],
      "min": [
        0.021304000169038773,
        0.006032705307006836
      ],
      "type": "VEC2"
    },
    {
      "bufferView": 0,
      "byteOffset": 296892,
      "componentType": 5125,
      "count": 6276,
      "type": "SCALAR"
    },
    {
      "bufferView": 2,
      "byteOffset": 1711440,
      "componentType": 5126,
      "count": 22716,
      "max": [
        0.24691247940063477,
        0.25788959860801697,
        -0.0035182649735361338
      ],
      "min": [
        -0.11399296671152115,
        -0.1752474308013916,
        -0.9039353132247925
      ],
      "type": "VEC3"
    },
    {
      "bufferView": 2,
      "byteOffset": 1984032,
      "componentType": 5126,
      "count": 22716,
      "max": [
        0.8932417631149292,
        0.8108024001121521,
        0.7381621599197388
      ],
      "min": [
        -0.9955533146858215,
        -0.8108396530151367,
        -0.7381995320320129
      ],
      "type": "VEC3"
    },
    {
      "bufferView": 1,
      "byteOffset": 570480,
      "componentType": 5126,
      "count": 22716,
      "max": [
        0.0,
        1.0
      ],
      "min": [
        0.0,
        1.0
      ],
      "type": "VEC2"
    },
    {
      "bufferView": 0,
      "byteOffset": 321996,
      "componentType": 5125,
      "count": 23490,
      "type": "SCALAR"
    }
  ],
  "asset": {
    "extras": {
      "author": "jin (https://sketchfab.com/madjin)",
      "license": "CC-BY-4.0 (http://creativecommons.org/licenses/by/4.0/)",
      "source": "https://sketchfab.com/3d-models/bubble-bear-nug-744527db35624d0a9fa851ef4df4947a",
      "title": "Bubble Bear Nug"
    },
    "generator": "Sketchfab-15.0.0",
    "version": "2.0"
  },
  "bufferViews": [
    {
      "buffer": 0,
      "byteLength": 415956,
      "name": "floatBufferViews",
      "target": 34963
    },
    {
      "buffer": 0,
      "byteLength": 752208,
      "byteOffset": 415956,
      "byteStride": 8,
      "name": "floatBufferViews",
      "target": 34962
    },
    {
      "buffer": 0,
      "byteLength": 2256624,
      "byteOffset": 1168164,
      "byteStride": 12,
      "name": "floatBufferViews",
      "target": 34962
    }
  ],
  "buffers": [
    {
      "byteLength": 3424788,
      "uri": "scene.bin"
    }
  ],
  "extensionsUsed": [
    "KHR_materials_specular"
  ],
  "images": [
    {
      "uri": "textures/Bubble_Bear_baseColor.jpeg"
    },
    {
      "uri": "textures/Bubble_Bear_specularf0.png"
    }
  ],
  "materials": [
    {
      "doubleSided": true,
      "extensions": {
        "KHR_materials_specular": {
          "specularColorFactor": [
            1.0,
            1.0,
            1.0
          ],
          "specularFactor": 1.0,
          "specularTexture": {
            "index": 1
          }
        }
      },
      "name": "Bubble_Bear",
      "pbrMetallicRoughness": {
        "baseColorTexture": {
          "index": 0
        },
        "metallicFactor": 0.447154,
        "roughnessFactor": 0.682927
      }
    },
    {
      "doubleSided": true,
      "name": "hairs",
      "pbrMetallicRoughness": {
        "baseColorFactor": [
          0.8,
          0.8,
          0.8,
          1.0
        ],
        "metallicFactor": 0.536585,
        "roughnessFactor": 0.0447154
      }
    }
  ],
  "meshes": [
    {
      "name": "Object_0",
      "primitives": [
        {
          "attributes": {
            "NORMAL": 1,
            "POSITION": 0,
            "TEXCOORD_0": 2
          },
          "indices": 3,
          "material": 0,
          "mode": 4
        }
      ]
    },
    {
      "name": "Object_1",
      "primitives": [
        {
          "attributes": {
            "NORMAL": 5,
            "POSITION": 4,
            "TEXCOORD_0": 6
          },
          "indices": 7,
          "material": 0,
          "mode": 4
        }
      ]
    },
    {
      "name": "Object_2",
      "primitives": [
        {
          "attributes": {
            "NORMAL": 9,
            "POSITION": 8,
            "TEXCOORD_0": 10
          },
          "indices": 11,
          "material": 1,
          "mode": 4
        }
      ]
    }
  ],
  "nodes": [
    {
      "children": [
        1
      ],
      "matrix": [
        1.0,
        0.0,
        0.0,
        0.0,
        0.0,
        2.220446049250313e-16,
        -1.0,
        0.0,
        0.0,
        1.0,
        2.220446049250313e-16,
        0.0,
        0.0,
        0.0,
        0.0,
        1.0
      ],
      "name": "Sketchfab_model"
    },
    {
      "children": [
        2
      ],
      "name": "root"
    },
    {
      "children": [
        3
      ],
      "matrix": [
        1.0,
        0.0,
        0.0,
        0.0,
        0.0,
        2.220446049250313e-16,
        1.0,
        0.0,
        0.0,
        -1.0,
        2.220446049250313e-16,
        0.0,
        0.0,
        0.0,
        0.0,
        1.0
      ],
      "name": "GLTF_SceneRootNode"
    },
    {
      "children": [
        4,
        5,
        6
      ],
      "matrix": [
        1.0,
        0.0,
        0.0,
        0.0,
        0.0,
        -1.685873969314855e-07,
        0.9999999999999858,
        0.0,
        0.0,
        -0.9999999999999858,
        -1.685873969314855e-07,
        0.0,
        0.0,
        0.0,
        0.0,
        1.0
      ],
      "name": "Bubble_Bear_0"
    },
    {
      "mesh": 0,
      "name": "Object_4"
    },
    {
      "mesh": 1,
      "name": "Object_5"
    },
    {
      "mesh": 2,
      "name": "Object_6"
    }
  ],
  "samplers": [
    {
      "magFilter": 9729,
      "minFilter": 9987,
      "wrapS": 10497,
      "wrapT": 10497
    }
  ],
  "scene": 0,
  "scenes": [
    {
      "name": "Sketchfab_Scene",
      "nodes": [
        0
      ]
    }
  ],
  "textures": [
    {
      "sampler": 0,
      "source": 0
    },
    {
      "sampler": 0,
      "source": 1
    }
  ]
}
