{
  "accessors": [
    {
      "bufferView": 2,
      "componentType": 5126,
      "count": 65533,
      "max": [
        10.278019905090332,
        8.017679214477539,
        42.53705596923828
      ],
      "min": [
        -12.950756072998047,
        -11.557210922241211,
        16.819652557373047
      ],
      "type": "VEC3"
    },
    {
      "bufferView": 2,
      "byteOffset": 786396,
      "componentType": 5126,
      "count": 65533,
      "max": [
        0.9999709129333496,
        0.9998791813850403,
        0.9998770356178284
      ],
      "min": [
        -0.9999768733978271,
        -0.9999963045120239,
        -0.9997240900993347
      ],
      "type": "VEC3"
    },
    {
      "bufferView": 3,
      "componentType": 5126,
      "count": 65533,
      "max": [
        0.9098039269447327,
        0.9215686321258545,
        0.95686274766922,
        1.0
      ],
      "min": [
        0.0784313753247261,
        0.07058823853731155,
        0.04313725605607033,
        1.0
      ],
      "type": "VEC4"
    },
    {
      "bufferView": 1,
      "componentType": 5126,
      "count": 65533,
      "max": [
        0.9997557401657104,
        0.9177244901657104
      ],
      "min": [
        0.000244140625,
        0.00024410022888332605
      ],
      "type": "VEC2"
    },
    {
      "bufferView": 0,
      "componentType": 5125,
      "count": 212502,
      "type": "SCALAR"
    },
    {
      "bufferView": 2,
      "byteOffset": 1572792,
      "componentType": 5126,
      "count": 65532,
      "max": [
        9.963135719299316,
        7.763943195343018,
        61.387638092041016
      ],
      "min": [
        -12.950756072998047,
        -9.411416053771973,
        16.825485229492188
      ],
      "type": "VEC3"
    },
    {
      "bufferView": 2,
      "byteOffset": 2359176,
      "componentType": 5126,
      "count": 65532,
      "max": [
        0.9999333024024963,
        0.9999154806137085,
        0.9998884797096252
      ],
      "min": [
        -0.9999942779541016,
        -0.9999963045120239,
        -0.9997145533561707
      ],
      "type": "VEC3"
    },
    {
      "bufferView": 3,
      "byteOffset": 1048528,
      "componentType": 5126,
      "count": 65532,
      "max": [
        0.9254902005195618,
        0.9137254953384399,
        0.886274516582489,
        1.0
      ],
      "min": [
        0.08235294371843338,
        0.07450980693101883,
        0.0470588244497776,
        1.0
      ],
      "type": "VEC4"
    },
    {
      "bufferView": 1,
      "byteOffset": 524264,
      "componentType": 5126,
      "count": 65532,
      "max": [
        0.9997557401657104,
        0.9177244901657104
      ],
      "min": [
        0.000244140625,
        0.00024410022888332605
      ],
      "type": "VEC2"
    },
    {
      "bufferView": 0,
      "byteOffset": 850008,
      "componentType": 5125,
      "count": 187977,
      "type": "SCALAR"
    },
    {
      "bufferView": 2,
      "byteOffset": 3145560,
      "componentType": 5126,
      "count": 65534,
      "max": [
        10.189613342285156,
        7.27316951751709,
        61.36042022705078
      ],
      "min": [
        -10.076696395874023,
        -11.594743728637695,
        36.177406311035156
      ],
      "type": "VEC3"
    },
    {
      "bufferView": 2,
      "byteOffset": 3931968,
      "componentType": 5126,
      "count": 65534,
      "max": [
        0.9998961687088013,
        0.999985933303833,
        0.9998924732208252
      ],
      "min": [
        -0.9999973177909851,
        -0.9999865889549255,
        -0.999577522277832
      ],
      "type": "VEC3"
    },
    {
      "bufferView": 3,
      "byteOffset": 2097040,
      "componentType": 5126,
      "count": 65534,
      "max": [
        0.9176470637321472,
        0.9176470637321472,
        0.886274516582489,
        1.0
      ],
      "min": [
        0.019607843831181526,
        0.003921568859368563,
        0.0,
        1.0
      ],
      "type": "VEC4"
    },
    {
      "bufferView": 1,
      "byteOffset": 1048520,
      "componentType": 5126,
      "count": 65534,
      "max": [
        0.9997557997703552,
        0.9187010526657104
      ],
      "min": [
        0.000244140625,
        0.00024410022888332605
      ],
      "type": "VEC2"
    },
    {
      "bufferView": 0,
      "byteOffset": 1601916,
      "componentType": 5125,
      "count": 195816,
      "type": "SCALAR"
    },
    {
      "bufferView": 2,
      "byteOffset": 4718376,
      "componentType": 5126,
      "count": 57977,
      "max": [
        9.971302032470703,
        7.0939621925354,
        61.45924377441406
      ],
      "min": [
        -10.163040161132813,
        -12.039509773254395,
        36.12532043457031
      ],
      "type": "VEC3"
    },
    {
      "bufferView": 2,
      "byteOffset": 5414100,
      "componentType": 5126,
      "count": 57977,
      "max": [
        0.9999496936798096,
        0.9999192357063293,
        0.9998876452445984
      ],
      "min": [
        -0.9998789429664612,
        -0.9998795986175537,
        -0.9994493722915649
      ],
      "type": "VEC3"
    },
    {
      "bufferView": 3,
      "byteOffset": 3145584,
      "componentType": 5126,
      "count": 57977,
      "max": [
        0.9803921580314636,
        0.9921568632125854,
        0.9607843160629272,
        1.0
      ],
      "min": [
        0.0117647061124444,
        0.0,
        0.0,
        1.0
      ],
      "type": "VEC4"
    },
    {
      "bufferView": 1,
      "byteOffset": 1572792,
      "componentType": 5126,
      "count": 57977,
      "max": [
        0.9997557401657104,
        0.9196776151657104
      ],
      "min": [
        0.000244140625,
        0.00024410022888332605
      ],
      "type": "VEC2"
    },
    {
      "bufferView": 0,
      "byteOffset": 2385180,
      "componentType": 5125,
      "count": 153705,
      "type": "SCALAR"
    }
  ],
  "asset": {
    "extras": {
      "author": "Shanti (https://sketchfab.com/shanti.rize)",
      "license": "CC-BY-4.0 (http://creativecommons.org/licenses/by/4.0/)",
      "source": "https://sketchfab.com/3d-models/weed-411d81b3b95e4ae68aef511399a7deb9",
      "title": "Weed"
    },
    "generator": "Sketchfab-12.67.0",
    "version": "2.0"
  },
  "bufferViews": [
    {
      "buffer": 0,
      "byteLength": 3000000,
      "name": "floatBufferViews",
      "target": 34963
    },
    {
      "buffer": 0,
      "byteLength": 2036608,
      "byteOffset": 3000000,
      "byteStride": 8,
      "name": "floatBufferViews",
      "target": 34962
    },
    {
      "buffer": 0,
      "byteLength": 6109824,
      "byteOffset": 5036608,
      "byteStride": 12,
      "name": "floatBufferViews",
      "target": 34962
    },
    {
      "buffer": 0,
      "byteLength": 4073216,
      "byteOffset": 11146432,
      "byteStride": 16,
      "name": "floatBufferViews",
      "target": 34962
    }
  ],
  "buffers": [
    {
      "byteLength": 15219648,
      "uri": "scene.bin"
    }
  ],
  "extensionsUsed": [
    "KHR_materials_unlit"
  ],
  "images": [
    {
      "uri": "textures/Material_u1_v1_baseColor.jpeg"
    }
  ],
  "materials": [
    {
      "doubleSided": true,
      "extensions": {
        "KHR_materials_unlit": {}
      },
      "name": "Material_u1_v1",
      "pbrMetallicRoughness": {
        "baseColorTexture": {
          "index": 0
        },
        "metallicFactor": 0.0
      }
    }
  ],
  "meshes": [
    {
      "name": "meshNode_Material_u1_v1_0",
      "primitives": [
        {
          "attributes": {
            "COLOR_0": 2,
            "NORMAL": 1,
            "POSITION": 0,
            "TEXCOORD_0": 3
          },
          "indices": 4,
          "material": 0,
          "mode": 4
        }
      ]
    },
    {
      "name": "meshNode_Material_u1_v1_0",
      "primitives": [
        {
          "attributes": {
            "COLOR_0": 7,
            "NORMAL": 6,
            "POSITION": 5,
            "TEXCOORD_0": 8
          },
          "indices": 9,
          "material": 0,
          "mode": 4
        }
      ]
    },
    {
      "name": "meshNode_Material_u1_v1_0",
      "primitives": [
        {
          "attributes": {
            "COLOR_0": 12,
            "NORMAL": 11,
            "POSITION": 10,
            "TEXCOORD_0": 13
          },
          "indices": 14,
          "material": 0,
          "mode": 4
        }
      ]
    },
    {
      "name": "meshNode_Material_u1_v1_0",
      "primitives": [
        {
          "attributes": {
            "COLOR_0": 17,
            "NORMAL": 16,
            "POSITION": 15,
            "TEXCOORD_0": 18
          },
          "indices": 19,
          "material": 0,
          "mode": 4
        }
      ]
    }
  ],
  "nodes": [
    {
      "children": [
        1
      ],
      "matrix": [
        1.0,
        -2.2204460492503128e-16,
        -1.6081226229577296e-16,
        0.0,
        1.6081226229577292e-16,
        -6.123234262925839e-17,
        1.0,
        0.0,
        -2.220446049250313e-16,
        -1.0,
        -6.123234262925839e-17,
        0.0,
        -8.881784197001252e-15,
        -78.27867126464844,
        -4.021795272827166,
        1.0
      ],
      "name": "Sketchfab_model"
    },
    {
      "children": [
        2
      ],
      "matrix": [
        1.0,
        0.0,
        0.0,
        0.0,
        0.0,
        -1.0,
        0.0,
        0.0,
        0.0,
        0.0,
        -1.0,
        0.0,
        0.0,
        0.0,
        0.0,
        1.0
      ],
      "name": "dfd8fdae9f364dc49b1818102de65e36.fbx"
    },
    {
      "children": [
        3
      ],
      "name": "RootNode"
    },
    {
      "children": [
        4,
        5,
        6,
        7
      ],
      "name": "meshNode"
    },
    {
      "mesh": 0,
      "name": "meshNode_Material_u1_v1_0"
    },
    {
      "mesh": 1,
      "name": "meshNode_Material_u1_v1_0"
    },
    {
      "mesh": 2,
      "name": "meshNode_Material_u1_v1_0"
    },
    {
      "mesh": 3,
      "name": "meshNode_Material_u1_v1_0"
    }
  ],
  "samplers": [
    {
      "magFilter": 9729,
      "minFilter": 9987,
      "wrapS": 10497,
      "wrapT": 10497
    }
  ],
  "scene": 0,
  "scenes": [
    {
      "name": "Sketchfab_Scene",
      "nodes": [
        0
      ]
    }
  ],
  "textures": [
    {
      "sampler": 0,
      "source": 0
    }
  ]
}
